<svg xmlns="http://www.w3.org/2000/svg" viewBox="0 0 1000 1414" role="img" aria-label="Placeholder">
	<rect width="1000" height="1414" fill="#f1f1ef" />
	<rect x="0" y="0" width="1000" height="120" fill="#16160f" fill-opacity="0.9" />
	<g fill="#f1f1ef" fill-opacity="0.7">
		<rect x="90" y="55" width="160" height="10" />
		<rect x="760" y="55" width="150" height="10" />
	</g>
	<g fill="#16160f" fill-opacity="0.1">
		<rect x="90" y="200" width="380" height="120" />
		<rect x="90" y="350" width="380" height="120" />
		<rect x="90" y="500" width="380" height="120" />
	</g>
	<rect x="90" y="200" width="8" height="120" fill="#ddf49a" />
	<rect x="90" y="350" width="8" height="120" fill="#ddf49a" />
	<g fill="#16160f" fill-opacity="0.35">
		<rect x="130" y="240" width="200" height="8" />
		<rect x="130" y="268" width="140" height="8" />
		<rect x="130" y="390" width="220" height="8" />
		<rect x="130" y="418" width="120" height="8" />
		<rect x="130" y="540" width="180" height="8" />
		<rect x="130" y="568" width="160" height="8" />
	</g>
	<rect x="530" y="200" width="380" height="537" fill="#ddf49a" />
	<g fill="#16160f" fill-opacity="0.4">
		<rect x="580" y="640" width="180" height="8" />
		<rect x="580" y="668" width="120" height="8" />
	</g>
	<g fill="#16160f" fill-opacity="0.25">
		<rect x="90" y="860" width="820" height="2" />
		<rect x="90" y="1010" width="820" height="2" />
		<rect x="90" y="1160" width="820" height="2" />
		<rect x="90" y="1310" width="820" height="2" />
	</g>
	<g fill="#16160f" fill-opacity="0.35">
		<rect x="90" y="910" width="260" height="8" />
		<rect x="90" y="1060" width="320" height="8" />
		<rect x="90" y="1210" width="220" height="8" />
	</g>
</svg>
